<svg width="268" height="93" viewBox="0 0 268 93" fill="none" xmlns="http://www.w3.org/2000/svg">
<path d="M105.503 32.9091H109.878V53.5341C109.878 55.3996 109.509 56.9953 108.77 58.321C108.041 59.6468 107.013 60.66 105.688 61.3608C104.362 62.0521 102.809 62.3977 101.028 62.3977C99.3902 62.3977 97.9176 62.0994 96.6108 61.5028C95.3134 60.9062 94.286 60.0398 93.5284 58.9034C92.7803 57.7576 92.4062 56.3655 92.4062 54.7273H96.767C96.767 55.5322 96.9517 56.2282 97.321 56.8153C97.6998 57.4025 98.2159 57.8617 98.8693 58.1932C99.5322 58.5152 100.29 58.6761 101.142 58.6761C102.07 58.6761 102.856 58.482 103.5 58.0938C104.153 57.696 104.651 57.1136 104.991 56.3466C105.332 55.5795 105.503 54.642 105.503 53.5341V32.9091ZM129.746 52.9517V40.1818H134.008V62H129.832V58.2216H129.604C129.103 59.3864 128.298 60.357 127.19 61.1335C126.091 61.9006 124.723 62.2841 123.085 62.2841C121.683 62.2841 120.442 61.9763 119.363 61.3608C118.293 60.7358 117.45 59.8125 116.835 58.5909C116.228 57.3693 115.925 55.8589 115.925 54.0597V40.1818H120.173V53.5483C120.173 55.035 120.585 56.2187 121.408 57.0994C122.232 57.9801 123.302 58.4205 124.619 58.4205C125.414 58.4205 126.205 58.2216 126.991 57.8239C127.786 57.4261 128.444 56.8248 128.965 56.0199C129.496 55.215 129.756 54.1922 129.746 52.9517ZM156.064 45.5085L152.214 46.1903C152.054 45.6979 151.798 45.2292 151.447 44.7841C151.107 44.339 150.643 43.9744 150.055 43.6903C149.468 43.4062 148.734 43.2642 147.854 43.2642C146.651 43.2642 145.647 43.5341 144.842 44.0739C144.037 44.6042 143.635 45.2907 143.635 46.1335C143.635 46.8627 143.905 47.4498 144.445 47.8949C144.984 48.34 145.856 48.7045 147.058 48.9886L150.524 49.7841C152.532 50.2481 154.028 50.9631 155.013 51.929C155.998 52.8949 156.49 54.1496 156.49 55.6932C156.49 57 156.111 58.1648 155.354 59.1875C154.606 60.2008 153.559 60.9962 152.214 61.5739C150.879 62.1515 149.331 62.4403 147.57 62.4403C145.126 62.4403 143.133 61.9195 141.589 60.8778C140.046 59.8267 139.099 58.3352 138.749 56.4034L142.854 55.7784C143.109 56.8485 143.635 57.6581 144.43 58.2074C145.226 58.7472 146.263 59.017 147.541 59.017C148.933 59.017 150.046 58.7282 150.879 58.1506C151.713 57.5634 152.129 56.8485 152.129 56.0057C152.129 55.3239 151.874 54.7509 151.362 54.2869C150.86 53.8229 150.089 53.4725 149.047 53.2358L145.354 52.4261C143.318 51.9621 141.812 51.2235 140.837 50.2102C139.871 49.197 139.388 47.9138 139.388 46.3608C139.388 45.0729 139.748 43.946 140.467 42.9801C141.187 42.0142 142.181 41.2614 143.45 40.7216C144.719 40.1723 146.173 39.8977 147.811 39.8977C150.169 39.8977 152.025 40.4091 153.379 41.4318C154.733 42.4451 155.628 43.804 156.064 45.5085ZM171.344 40.1818V43.5909H159.427V40.1818H171.344ZM162.623 34.9545H166.87V55.5938C166.87 56.4176 166.993 57.0379 167.239 57.4545C167.486 57.8617 167.803 58.1411 168.191 58.2926C168.589 58.4347 169.02 58.5057 169.484 58.5057C169.825 58.5057 170.123 58.482 170.379 58.4347C170.634 58.3873 170.833 58.3494 170.975 58.321L171.742 61.8295C171.496 61.9242 171.146 62.0189 170.691 62.1136C170.237 62.2178 169.668 62.2746 168.987 62.2841C167.869 62.303 166.827 62.1042 165.862 61.6875C164.896 61.2708 164.114 60.6269 163.518 59.7557C162.921 58.8845 162.623 57.7907 162.623 56.4744V34.9545ZM200.545 42.3693H196.114C195.943 41.4223 195.626 40.589 195.162 39.8693C194.698 39.1496 194.13 38.5388 193.457 38.0369C192.785 37.535 192.032 37.1562 191.199 36.9006C190.375 36.6449 189.499 36.517 188.571 36.517C186.895 36.517 185.394 36.9384 184.068 37.7812C182.752 38.6241 181.71 39.8598 180.943 41.4886C180.186 43.1174 179.807 45.1061 179.807 47.4545C179.807 49.822 180.186 51.8201 180.943 53.4489C181.71 55.0777 182.757 56.3087 184.082 57.142C185.408 57.9754 186.9 58.392 188.557 58.392C189.475 58.392 190.347 58.2689 191.17 58.0227C192.004 57.767 192.757 57.393 193.429 56.9006C194.101 56.4081 194.67 55.8068 195.134 55.0966C195.607 54.3769 195.934 53.553 196.114 52.625L200.545 52.6392C200.309 54.0691 199.849 55.3854 199.168 56.5881C198.495 57.7812 197.629 58.8134 196.568 59.6847C195.517 60.5464 194.314 61.214 192.96 61.6875C191.606 62.161 190.129 62.3977 188.528 62.3977C186.009 62.3977 183.765 61.8011 181.795 60.608C179.826 59.4053 178.273 57.6866 177.136 55.4517C176.009 53.2169 175.446 50.5511 175.446 47.4545C175.446 44.3485 176.014 41.6828 177.151 39.4574C178.287 37.2225 179.84 35.5085 181.81 34.3153C183.779 33.1127 186.019 32.5114 188.528 32.5114C190.072 32.5114 191.511 32.7339 192.847 33.179C194.191 33.6146 195.399 34.2585 196.469 35.1108C197.539 35.9536 198.424 36.9858 199.125 38.2074C199.826 39.4195 200.299 40.8068 200.545 42.3693ZM209.704 49.0455V62H205.457V32.9091H209.647V43.733H209.917C210.428 42.5587 211.21 41.6259 212.261 40.9347C213.312 40.2434 214.685 39.8977 216.38 39.8977C217.876 39.8977 219.183 40.2055 220.3 40.821C221.427 41.4366 222.299 42.3551 222.914 43.5767C223.539 44.7888 223.852 46.304 223.852 48.1222V62H219.604V48.6335C219.604 47.0331 219.192 45.7926 218.369 44.9119C217.545 44.0218 216.399 43.5767 214.931 43.5767C213.927 43.5767 213.028 43.7898 212.232 44.2159C211.446 44.642 210.826 45.267 210.371 46.0909C209.926 46.9053 209.704 47.8902 209.704 49.0455ZM235.869 62.483C234.486 62.483 233.236 62.2273 232.119 61.7159C231.001 61.1951 230.116 60.4422 229.462 59.4574C228.818 58.4725 228.496 57.2652 228.496 55.8352C228.496 54.6042 228.733 53.5909 229.207 52.7955C229.68 52 230.319 51.3703 231.124 50.9062C231.929 50.4422 232.829 50.0919 233.823 49.8551C234.817 49.6184 235.831 49.4384 236.863 49.3153C238.17 49.1638 239.23 49.0407 240.045 48.946C240.859 48.8419 241.451 48.6761 241.82 48.4489C242.19 48.2216 242.374 47.8523 242.374 47.3409V47.2415C242.374 46.0009 242.024 45.0398 241.323 44.358C240.632 43.6761 239.6 43.3352 238.227 43.3352C236.797 43.3352 235.67 43.6525 234.846 44.2869C234.031 44.9119 233.468 45.608 233.156 46.375L229.164 45.4659C229.638 44.1402 230.329 43.0701 231.238 42.2557C232.156 41.4318 233.212 40.8352 234.406 40.4659C235.599 40.0871 236.853 39.8977 238.17 39.8977C239.041 39.8977 239.964 40.0019 240.94 40.2102C241.924 40.4091 242.843 40.7784 243.695 41.3182C244.557 41.858 245.263 42.6297 245.812 43.6335C246.361 44.6278 246.636 45.9205 246.636 47.5114V62H242.488V59.017H242.317C242.043 59.5663 241.631 60.1061 241.082 60.6364C240.532 61.1667 239.827 61.607 238.965 61.9574C238.103 62.3078 237.071 62.483 235.869 62.483ZM236.792 59.0739C237.966 59.0739 238.97 58.8419 239.803 58.3778C240.646 57.9138 241.285 57.3078 241.721 56.5597C242.166 55.8021 242.388 54.9924 242.388 54.1307V51.3182C242.237 51.4697 241.943 51.6117 241.508 51.7443C241.082 51.8674 240.594 51.9763 240.045 52.071C239.496 52.1562 238.96 52.2367 238.44 52.3125C237.919 52.3788 237.483 52.4356 237.133 52.483C236.309 52.5871 235.556 52.7623 234.874 53.0085C234.202 53.2547 233.662 53.6098 233.255 54.0739C232.857 54.5284 232.658 55.1345 232.658 55.892C232.658 56.9432 233.047 57.7386 233.823 58.2784C234.6 58.8087 235.589 59.0739 236.792 59.0739ZM262.477 40.1818V43.5909H250.56V40.1818H262.477ZM253.756 34.9545H258.003V55.5938C258.003 56.4176 258.126 57.0379 258.372 57.4545C258.618 57.8617 258.936 58.1411 259.324 58.2926C259.722 58.4347 260.152 58.5057 260.616 58.5057C260.957 58.5057 261.256 58.482 261.511 58.4347C261.767 58.3873 261.966 58.3494 262.108 58.321L262.875 61.8295C262.629 61.9242 262.278 62.0189 261.824 62.1136C261.369 62.2178 260.801 62.2746 260.119 62.2841C259.002 62.303 257.96 62.1042 256.994 61.6875C256.028 61.2708 255.247 60.6269 254.651 59.7557C254.054 58.8845 253.756 57.7907 253.756 56.4744V34.9545Z" fill="#FFB266"/>
<path d="M10 39C10 25.8007 10 19.201 14.1005 15.1005C18.201 11 24.8007 11 38 11H55C68.1993 11 74.799 11 78.8995 15.1005C83 19.201 83 25.8007 83 39V56C83 69.1993 83 75.799 78.8995 79.8995C74.799 84 68.1993 84 55 84H38C24.8007 84 18.201 84 14.1005 79.8995C10 75.799 10 69.1993 10 56V39Z" fill="#1E1E1E"/>
<path d="M38 12H55C61.6279 12 66.4983 12.0021 70.2286 12.5036C73.9301 13.0013 76.3589 13.9741 78.1924 15.8076C80.0259 17.6411 80.9987 20.0699 81.4964 23.7714C81.9979 27.5017 82 32.3721 82 39V56C82 62.6279 81.9979 67.4983 81.4964 71.2286C80.9987 74.9301 80.0259 77.3589 78.1924 79.1924C76.3589 81.0259 73.9301 81.9987 70.2286 82.4964C66.4983 82.9979 61.6279 83 55 83H38C31.3721 83 26.5017 82.9979 22.7714 82.4964C19.0699 81.9987 16.6411 81.0259 14.8076 79.1924C12.9741 77.3589 12.0013 74.9301 11.5036 71.2286C11.0021 67.4983 11 62.6279 11 56V39C11 32.3721 11.0021 27.5017 11.5036 23.7714C12.0013 20.0699 12.9741 17.6411 14.8076 15.8076C16.6411 13.9741 19.0699 13.0013 22.7714 12.5036C26.5017 12.0021 31.3721 12 38 12Z" stroke="white" stroke-opacity="0.28" stroke-width="2"/>
<g filter="url(#filter0_d_7_133)">
<path d="M37.9833 43.6675H54.53" stroke="#FFB266" stroke-width="3.5" stroke-linecap="round"/>
<path d="M37.9833 50.9067H49.3592" stroke="#FFB266" stroke-width="3.5" stroke-linecap="round"/>
<path d="M56.5983 28.8537C53.556 27.0939 50.0239 26.0867 46.2566 26.0867C34.8335 26.0867 25.5733 35.3469 25.5733 46.77C25.5733 50.0787 26.3502 53.2058 27.7315 55.9793C28.0986 56.7162 28.2208 57.5586 28.008 58.3539L26.7761 62.9582C26.2413 64.9569 28.0698 66.7853 30.0685 66.2506L34.6727 65.0187C35.4681 64.8059 36.3105 64.9281 37.0474 65.295C39.8207 66.6765 42.9479 67.4533 46.2566 67.4533C57.6796 67.4533 66.94 58.193 66.94 46.77C66.94 43.0027 65.9327 39.4706 64.173 36.4283" stroke="#FFB266" stroke-width="3.5" stroke-linecap="round"/>
</g>
<defs>
<filter id="filter0_d_7_133" x="0.423304" y="0.93667" width="91.6666" height="91.6666" filterUnits="userSpaceOnUse" color-interpolation-filters="sRGB">
<feFlood flood-opacity="0" result="BackgroundImageFix"/>
<feColorMatrix in="SourceAlpha" type="matrix" values="0 0 0 0 0 0 0 0 0 0 0 0 0 0 0 0 0 0 127 0" result="hardAlpha"/>
<feOffset/>
<feGaussianBlur stdDeviation="11.7"/>
<feComposite in2="hardAlpha" operator="out"/>
<feColorMatrix type="matrix" values="0 0 0 0 1 0 0 0 0 0.698039 0 0 0 0 0.4 0 0 0 0.51 0"/>
<feBlend mode="normal" in2="BackgroundImageFix" result="effect1_dropShadow_7_133"/>
<feBlend mode="normal" in="SourceGraphic" in2="effect1_dropShadow_7_133" result="shape"/>
</filter>
</defs>
</svg>
