<svg width="23" height="24" viewBox="0 0 23 24" fill="none" xmlns="http://www.w3.org/2000/svg">
<path fill-rule="evenodd" clip-rule="evenodd" d="M11.5095 0.5C5.14505 0.5 0 5.68298 0 12.095C0 17.2205 3.29661 21.5592 7.86988 23.0947C8.44166 23.2102 8.6511 22.8452 8.6511 22.5383C8.6511 22.2695 8.63225 21.3481 8.63225 20.388C5.43059 21.0793 4.76387 19.0058 4.76387 19.0058C4.24934 17.662 3.48697 17.3167 3.48697 17.3167C2.43906 16.6063 3.5633 16.6063 3.5633 16.6063C4.7257 16.6831 5.33564 17.7965 5.33564 17.7965C6.36446 19.5625 8.02231 19.0636 8.68927 18.7563C8.78445 18.0076 9.08953 17.4893 9.41347 17.2014C6.85991 16.9326 4.17324 15.9344 4.17324 11.4806C4.17324 10.2136 4.63029 9.17702 5.35449 8.37083C5.24023 8.08294 4.83996 6.8925 5.46899 5.2992C5.46899 5.2992 6.4408 4.992 8.63202 6.48941C9.57016 6.2356 10.5376 6.10648 11.5095 6.10539C12.4813 6.10539 13.472 6.23992 14.3868 6.48941C16.5782 4.992 17.55 5.2992 17.55 5.2992C18.1791 6.8925 17.7786 8.08294 17.6643 8.37083C18.4076 9.17702 18.8458 10.2136 18.8458 11.4806C18.8458 15.9344 16.1591 16.9133 13.5865 17.2014C14.0058 17.5661 14.3677 18.2571 14.3677 19.3514C14.3677 20.9063 14.3488 22.1543 14.3488 22.538C14.3488 22.8452 14.5585 23.2102 15.1301 23.095C19.7033 21.5589 22.9999 17.2205 22.9999 12.095C23.0188 5.68298 17.8549 0.5 11.5095 0.5Z" fill="white"/>
</svg>
